<?xml version="1.0" encoding="utf-8"?>
<svg version="1.1" xmlns:xlink="http://www.w3.org/1999/xlink" width="21px" height="20px" xmlns="http://www.w3.org/2000/svg">
  <defs>
    <pattern id="BGPattern" patternUnits="userSpaceOnUse" alignment="0 0" imageRepeat="None" />
    <mask fill="white" id="Clip82">
      <path d="M 13 15  C 8.857864376269049 15  5.5 11.642135623730951  5.5 7.5  C 5.5 3.35786437626905  8.857864376269049 0  13 0  C 17.14213562373095 0  20.5 3.35786437626905  20.5 7.5  C 20.5 11.642135623730951  17.14213562373095 15  13 15  Z M 13.000000000000004 13.000000000000004  C 16.037566124069365 13.000000000000004  18.5 10.537566124069365  18.5 7.500000000000002  C 18.5 4.462433875930637  16.037566124069365 2.000000000000002  13.000000000000004 2.000000000000002  C 9.962433875930639 2.000000000000002  7.500000000000002 4.462433875930637  7.500000000000002 7.500000000000002  C 7.500000000000002 10.537566124069365  9.962433875930639 13.000000000000004  13.000000000000004 13.000000000000004  Z M 0 20  L 0 0  L 5 0  L 5 20  L 0 20  Z M 3 2.0000000000000004  L 2 2.0000000000000004  L 2 18  L 3 18  L 3 2.0000000000000004  Z " fill-rule="evenodd" />
    </mask>
  </defs>
  <g transform="matrix(1 0 0 1 -70 -578 )">
    <path d="M 13 15  C 8.857864376269049 15  5.5 11.642135623730951  5.5 7.5  C 5.5 3.35786437626905  8.857864376269049 0  13 0  C 17.14213562373095 0  20.5 3.35786437626905  20.5 7.5  C 20.5 11.642135623730951  17.14213562373095 15  13 15  Z M 13.000000000000004 13.000000000000004  C 16.037566124069365 13.000000000000004  18.5 10.537566124069365  18.5 7.500000000000002  C 18.5 4.462433875930637  16.037566124069365 2.000000000000002  13.000000000000004 2.000000000000002  C 9.962433875930639 2.000000000000002  7.500000000000002 4.462433875930637  7.500000000000002 7.500000000000002  C 7.500000000000002 10.537566124069365  9.962433875930639 13.000000000000004  13.000000000000004 13.000000000000004  Z M 0 20  L 0 0  L 5 0  L 5 20  L 0 20  Z M 3 2.0000000000000004  L 2 2.0000000000000004  L 2 18  L 3 18  L 3 2.0000000000000004  Z " fill-rule="nonzero" fill="rgba(218, 151, 110, 1)" stroke="none" transform="matrix(1 0 0 1 70 578 )" class="fill" />
    <path d="M 13 15  C 8.857864376269049 15  5.5 11.642135623730951  5.5 7.5  C 5.5 3.35786437626905  8.857864376269049 0  13 0  C 17.14213562373095 0  20.5 3.35786437626905  20.5 7.5  C 20.5 11.642135623730951  17.14213562373095 15  13 15  Z " stroke-width="0" stroke-dasharray="0" stroke="rgba(255, 255, 255, 0)" fill="none" transform="matrix(1 0 0 1 70 578 )" class="stroke" mask="url(#Clip82)" />
    <path d="M 13.000000000000004 13.000000000000004  C 16.037566124069365 13.000000000000004  18.5 10.537566124069365  18.5 7.500000000000002  C 18.5 4.462433875930637  16.037566124069365 2.000000000000002  13.000000000000004 2.000000000000002  C 9.962433875930639 2.000000000000002  7.500000000000002 4.462433875930637  7.500000000000002 7.500000000000002  C 7.500000000000002 10.537566124069365  9.962433875930639 13.000000000000004  13.000000000000004 13.000000000000004  Z " stroke-width="0" stroke-dasharray="0" stroke="rgba(255, 255, 255, 0)" fill="none" transform="matrix(1 0 0 1 70 578 )" class="stroke" mask="url(#Clip82)" />
    <path d="M 0 20  L 0 0  L 5 0  L 5 20  L 0 20  Z " stroke-width="0" stroke-dasharray="0" stroke="rgba(255, 255, 255, 0)" fill="none" transform="matrix(1 0 0 1 70 578 )" class="stroke" mask="url(#Clip82)" />
    <path d="M 3 2.0000000000000004  L 2 2.0000000000000004  L 2 18  L 3 18  L 3 2.0000000000000004  Z " stroke-width="0" stroke-dasharray="0" stroke="rgba(255, 255, 255, 0)" fill="none" transform="matrix(1 0 0 1 70 578 )" class="stroke" mask="url(#Clip82)" />
  </g>
</svg>