<?xml version="1.0" encoding="utf-8"?>
<svg version="1.1" xmlns:xlink="http://www.w3.org/1999/xlink" width="20px" height="18px" xmlns="http://www.w3.org/2000/svg">
  <defs>
    <pattern id="BGPattern" patternUnits="userSpaceOnUse" alignment="0 0" imageRepeat="None" />
    <mask fill="white" id="Clip83">
      <path d="M 10 4  L 18 4  L 18 2  L 2 2  L 2 16  L 18 16  L 18 14  L 10 14  C 9.447715250169207 14  9 13.552284749830793  9 13  L 9 5  C 9 4.447715250169207  9.447715250169207 4  10 4  Z M 0 1  C 0 0.44771525016920677  0.44771525016920677 0  1 0  L 19 0  C 19.552284749830793 0  20 0.44771525016920677  20 1  L 20 17  C 20 17.552284749830793  19.552284749830793 18  19 18  L 1 18  C 0.44771525016920677 18  0 17.552284749830793  0 17  L 0 1  Z M 18 6  L 11 6  L 11 12  L 18 12  L 18 6  Z M 13 10  L 13 8  L 16 8  L 16 10  L 13 10  Z " fill-rule="evenodd" />
    </mask>
  </defs>
  <g transform="matrix(1 0 0 1 -188 -578 )">
    <path d="M 10 4  L 18 4  L 18 2  L 2 2  L 2 16  L 18 16  L 18 14  L 10 14  C 9.447715250169207 14  9 13.552284749830793  9 13  L 9 5  C 9 4.447715250169207  9.447715250169207 4  10 4  Z M 0 1  C 0 0.44771525016920677  0.44771525016920677 0  1 0  L 19 0  C 19.552284749830793 0  20 0.44771525016920677  20 1  L 20 17  C 20 17.552284749830793  19.552284749830793 18  19 18  L 1 18  C 0.44771525016920677 18  0 17.552284749830793  0 17  L 0 1  Z M 18 6  L 11 6  L 11 12  L 18 12  L 18 6  Z M 13 10  L 13 8  L 16 8  L 16 10  L 13 10  Z " fill-rule="nonzero" fill="rgba(124, 209, 194, 1)" stroke="none" transform="matrix(1 0 0 1 188 578 )" class="fill" />
    <path d="M 10 4  L 18 4  L 18 2  L 2 2  L 2 16  L 18 16  L 18 14  L 10 14  C 9.447715250169207 14  9 13.552284749830793  9 13  L 9 5  C 9 4.447715250169207  9.447715250169207 4  10 4  Z " stroke-width="0" stroke-dasharray="0" stroke="rgba(255, 255, 255, 0)" fill="none" transform="matrix(1 0 0 1 188 578 )" class="stroke" mask="url(#Clip83)" />
    <path d="M 0 1  C 0 0.44771525016920677  0.44771525016920677 0  1 0  L 19 0  C 19.552284749830793 0  20 0.44771525016920677  20 1  L 20 17  C 20 17.552284749830793  19.552284749830793 18  19 18  L 1 18  C 0.44771525016920677 18  0 17.552284749830793  0 17  L 0 1  Z " stroke-width="0" stroke-dasharray="0" stroke="rgba(255, 255, 255, 0)" fill="none" transform="matrix(1 0 0 1 188 578 )" class="stroke" mask="url(#Clip83)" />
    <path d="M 18 6  L 11 6  L 11 12  L 18 12  L 18 6  Z " stroke-width="0" stroke-dasharray="0" stroke="rgba(255, 255, 255, 0)" fill="none" transform="matrix(1 0 0 1 188 578 )" class="stroke" mask="url(#Clip83)" />
    <path d="M 13 10  L 13 8  L 16 8  L 16 10  L 13 10  Z " stroke-width="0" stroke-dasharray="0" stroke="rgba(255, 255, 255, 0)" fill="none" transform="matrix(1 0 0 1 188 578 )" class="stroke" mask="url(#Clip83)" />
  </g>
</svg>