<?xml version="1.0" encoding="utf-8"?>
<svg version="1.1" xmlns:xlink="http://www.w3.org/1999/xlink" width="23px" height="20px" xmlns="http://www.w3.org/2000/svg">
  <defs>
    <pattern id="BGPattern" patternUnits="userSpaceOnUse" alignment="0 0" imageRepeat="None" />
    <mask fill="white" id="Clip84">
      <path d="M 21.358000049035493 5.182  C 22.597259518118136 7.240367153822355  21.999163250244205 9.9093387970877  20.00000008958982 11.242  L 20.00000008958982 18  L 21.000000059726545 18  L 21.000000059726545 20  L 1.0000006569919866 20  L 1.0000006569919866 18  L 2.0000006271287143 18  L 2.0000006271287143 11.242  C 0.7496817277524122 10.407455479338395  -0.0008287949448898598 9.003250249437576  0 7.5  C 0 6.673  0.2240006801658858 5.8759999999999994  0.6330006679518075 5.197000000000001  L 3.3450005869626134 0.5  C 3.5236288385589747 0.19060678306218382  3.853744057793016 0  4.211000561101019 0  L 17.79000015558765 0  C 18.147256658895653 0  18.47737187812969 0.19060678306218337  18.656000129726053 0.5  L 21.358000049035493 5.182  Z M 18.000000149316364 11.972000000000001  C 16.606301900814668 12.128348525555431  15.21947270215591 11.625391787821918  14.250000261303631 10.612000000000002  C 13.401708329552408 11.49925349105449  12.22752547225801 12.001081194896683  11.000000358359266 12.001  C 9.772772078840285 12.001603305036234  8.598633132315062 11.500516915047388  7.750000455414899 10.613999999999999  C 6.780338798429263 11.627025667157138  5.393535687643378 12.12960312951455  4.00000056740217 11.973  L 4.00000056740217 18  L 18.000000149316364 18  L 18.000000149316364 11.972999999999999  Z M 4.789000543840048 2  L 2.356000616497389 6.212999999999997  C 2.235392858615092 6.510992982492416  2.1733904965654856 6.829450656060725  2.1733904965654856 7.150925460275484  C 2.1733904965654856 8.531637334852466  3.292678588562896 9.650925460275483  4.673390421907304 9.650925460275483  C 5.554938722301775 9.650925460275483  6.371326707819379 9.186641464323133  6.822000483128017 8.428999999999998  C 7.15700047312382 7.591999999999999  8.342000437735843 7.591999999999999  8.67800042770178 8.428999999999997  C 9.057125946657813 9.379214475157893  9.97694432177294 10.002546547310658  11.000000358359266 10.002546547310658  C 12.023056394945591 10.002546547310658  12.942874770060715 9.379214475157891  13.322000289016746 8.428999999999998  C 13.657000279012552 7.591999999999999  14.842000243624572 7.591999999999999  15.178000233590513 8.428999999999997  C 15.560911105903509 9.371553350942436  16.47680480567048 9.988060367321507  17.494167819764684 9.988060367321507  C 18.874879653109094 9.988060367321507  19.994167745106502 8.86877224189849  19.994167745106502 7.488060367321506  C 19.994167745106502 7.033040376694604  19.8699834039675 6.586648605359926  19.63500010048991 6.196999999999999  L 17.210000172908348 2  L 4.790000543810185 2  Z " fill-rule="evenodd" />
    </mask>
  </defs>
  <g transform="matrix(1 0 0 1 -304 -578 )">
    <path d="M 21.358000049035493 5.182  C 22.597259518118136 7.240367153822355  21.999163250244205 9.9093387970877  20.00000008958982 11.242  L 20.00000008958982 18  L 21.000000059726545 18  L 21.000000059726545 20  L 1.0000006569919866 20  L 1.0000006569919866 18  L 2.0000006271287143 18  L 2.0000006271287143 11.242  C 0.7496817277524122 10.407455479338395  -0.0008287949448898598 9.003250249437576  0 7.5  C 0 6.673  0.2240006801658858 5.8759999999999994  0.6330006679518075 5.197000000000001  L 3.3450005869626134 0.5  C 3.5236288385589747 0.19060678306218382  3.853744057793016 0  4.211000561101019 0  L 17.79000015558765 0  C 18.147256658895653 0  18.47737187812969 0.19060678306218337  18.656000129726053 0.5  L 21.358000049035493 5.182  Z M 18.000000149316364 11.972000000000001  C 16.606301900814668 12.128348525555431  15.21947270215591 11.625391787821918  14.250000261303631 10.612000000000002  C 13.401708329552408 11.49925349105449  12.22752547225801 12.001081194896683  11.000000358359266 12.001  C 9.772772078840285 12.001603305036234  8.598633132315062 11.500516915047388  7.750000455414899 10.613999999999999  C 6.780338798429263 11.627025667157138  5.393535687643378 12.12960312951455  4.00000056740217 11.973  L 4.00000056740217 18  L 18.000000149316364 18  L 18.000000149316364 11.972999999999999  Z M 4.789000543840048 2  L 2.356000616497389 6.212999999999997  C 2.235392858615092 6.510992982492416  2.1733904965654856 6.829450656060725  2.1733904965654856 7.150925460275484  C 2.1733904965654856 8.531637334852466  3.292678588562896 9.650925460275483  4.673390421907304 9.650925460275483  C 5.554938722301775 9.650925460275483  6.371326707819379 9.186641464323133  6.822000483128017 8.428999999999998  C 7.15700047312382 7.591999999999999  8.342000437735843 7.591999999999999  8.67800042770178 8.428999999999997  C 9.057125946657813 9.379214475157893  9.97694432177294 10.002546547310658  11.000000358359266 10.002546547310658  C 12.023056394945591 10.002546547310658  12.942874770060715 9.379214475157891  13.322000289016746 8.428999999999998  C 13.657000279012552 7.591999999999999  14.842000243624572 7.591999999999999  15.178000233590513 8.428999999999997  C 15.560911105903509 9.371553350942436  16.47680480567048 9.988060367321507  17.494167819764684 9.988060367321507  C 18.874879653109094 9.988060367321507  19.994167745106502 8.86877224189849  19.994167745106502 7.488060367321506  C 19.994167745106502 7.033040376694604  19.8699834039675 6.586648605359926  19.63500010048991 6.196999999999999  L 17.210000172908348 2  L 4.790000543810185 2  Z " fill-rule="nonzero" fill="rgba(90, 111, 190, 1)" stroke="none" transform="matrix(1 0 0 1 304 578 )" class="fill" />
    <path d="M 21.358000049035493 5.182  C 22.597259518118136 7.240367153822355  21.999163250244205 9.9093387970877  20.00000008958982 11.242  L 20.00000008958982 18  L 21.000000059726545 18  L 21.000000059726545 20  L 1.0000006569919866 20  L 1.0000006569919866 18  L 2.0000006271287143 18  L 2.0000006271287143 11.242  C 0.7496817277524122 10.407455479338395  -0.0008287949448898598 9.003250249437576  0 7.5  C 0 6.673  0.2240006801658858 5.8759999999999994  0.6330006679518075 5.197000000000001  L 3.3450005869626134 0.5  C 3.5236288385589747 0.19060678306218382  3.853744057793016 0  4.211000561101019 0  L 17.79000015558765 0  C 18.147256658895653 0  18.47737187812969 0.19060678306218337  18.656000129726053 0.5  L 21.358000049035493 5.182  Z " stroke-width="0" stroke-dasharray="0" stroke="rgba(255, 255, 255, 0)" fill="none" transform="matrix(1 0 0 1 304 578 )" class="stroke" mask="url(#Clip84)" />
    <path d="M 18.000000149316364 11.972000000000001  C 16.606301900814668 12.128348525555431  15.21947270215591 11.625391787821918  14.250000261303631 10.612000000000002  C 13.401708329552408 11.49925349105449  12.22752547225801 12.001081194896683  11.000000358359266 12.001  C 9.772772078840285 12.001603305036234  8.598633132315062 11.500516915047388  7.750000455414899 10.613999999999999  C 6.780338798429263 11.627025667157138  5.393535687643378 12.12960312951455  4.00000056740217 11.973  L 4.00000056740217 18  L 18.000000149316364 18  L 18.000000149316364 11.972999999999999  Z " stroke-width="0" stroke-dasharray="0" stroke="rgba(255, 255, 255, 0)" fill="none" transform="matrix(1 0 0 1 304 578 )" class="stroke" mask="url(#Clip84)" />
    <path d="M 4.789000543840048 2  L 2.356000616497389 6.212999999999997  C 2.235392858615092 6.510992982492416  2.1733904965654856 6.829450656060725  2.1733904965654856 7.150925460275484  C 2.1733904965654856 8.531637334852466  3.292678588562896 9.650925460275483  4.673390421907304 9.650925460275483  C 5.554938722301775 9.650925460275483  6.371326707819379 9.186641464323133  6.822000483128017 8.428999999999998  C 7.15700047312382 7.591999999999999  8.342000437735843 7.591999999999999  8.67800042770178 8.428999999999997  C 9.057125946657813 9.379214475157893  9.97694432177294 10.002546547310658  11.000000358359266 10.002546547310658  C 12.023056394945591 10.002546547310658  12.942874770060715 9.379214475157891  13.322000289016746 8.428999999999998  C 13.657000279012552 7.591999999999999  14.842000243624572 7.591999999999999  15.178000233590513 8.428999999999997  C 15.560911105903509 9.371553350942436  16.47680480567048 9.988060367321507  17.494167819764684 9.988060367321507  C 18.874879653109094 9.988060367321507  19.994167745106502 8.86877224189849  19.994167745106502 7.488060367321506  C 19.994167745106502 7.033040376694604  19.8699834039675 6.586648605359926  19.63500010048991 6.196999999999999  L 17.210000172908348 2  L 4.790000543810185 2  Z " stroke-width="0" stroke-dasharray="0" stroke="rgba(255, 255, 255, 0)" fill="none" transform="matrix(1 0 0 1 304 578 )" class="stroke" mask="url(#Clip84)" />
  </g>
</svg>